<?xml version="1.0" encoding="UTF-8"?>
<svg xmlns="http://www.w3.org/2000/svg" width="1584" height="396" viewBox="0 0 1584 396" fill="none" aria-label="Eclipse Docks: isometric cube foundation, tower crane lowering the next module, developers with laptops beside the assembly">
  <defs>
    <linearGradient id="spot" x1="400" y1="160" x2="1200" y2="360" gradientUnits="userSpaceOnUse">
      <stop offset="0%" stop-color="#0d6efd" stop-opacity="0.04"/>
      <stop offset="50%" stop-color="#cfe2ff" stop-opacity="0.14"/>
      <stop offset="100%" stop-color="#0d6efd" stop-opacity="0.06"/>
    </linearGradient>
    <filter id="liftShadow" x="-30%" y="-30%" width="160%" height="160%">
      <feDropShadow dx="0" dy="5" stdDeviation="5" flood-color="#000" flood-opacity="0.12"/>
    </filter>
  </defs>

  <rect width="1584" height="396" fill="#ffffff"/>
  <ellipse cx="760" cy="260" rx="680" ry="220" fill="url(#spot)"/>

  <!-- Scene shifted left toward canvas center; branding sits closer on the right -->
  <g transform="translate(-150, 0)">
  <!-- Foundation: 2x2 isometric cubes (modular base) -->
  <g opacity="0.96">
    <g transform="translate(896, 228)">
      <path d="M0 36 L20 22 L40 36 L20 50 Z" fill="#e8f2ff" stroke="#000" stroke-width="0.85"/>
      <path d="M0 36 L0 62 L20 76 L20 50 Z" fill="#cfe2ff" stroke="#000" stroke-width="0.85"/>
      <path d="M20 50 L40 36 L40 62 L20 76 Z" fill="#bfdbfe" stroke="#000" stroke-width="0.85"/>
    </g>
    <g transform="translate(934, 212)">
      <path d="M0 36 L20 22 L40 36 L20 50 Z" fill="#93c5fd" stroke="#000" stroke-width="0.85"/>
      <path d="M0 36 L0 62 L20 76 L20 50 Z" fill="#60a5fa" stroke="#000" stroke-width="0.85"/>
      <path d="M20 50 L40 36 L40 62 L20 76 Z" fill="#3b82f6" stroke="#000" stroke-width="0.85"/>
    </g>
    <g transform="translate(918, 242)">
      <path d="M0 36 L20 22 L40 36 L20 50 Z" fill="#bfdbfe" stroke="#000" stroke-width="0.85"/>
      <path d="M0 36 L0 62 L20 76 L20 50 Z" fill="#93c5fd" stroke="#000" stroke-width="0.85"/>
      <path d="M20 50 L40 36 L40 62 L20 76 Z" fill="#60a5fa" stroke="#000" stroke-width="0.85"/>
    </g>
    <g transform="translate(956, 230)">
      <path d="M0 36 L20 22 L40 36 L20 50 Z" fill="#e8f2ff" stroke="#000" stroke-width="0.85"/>
      <path d="M0 36 L0 62 L20 76 L20 50 Z" fill="#cfe2ff" stroke="#000" stroke-width="0.85"/>
      <path d="M20 50 L40 36 L40 62 L20 76 Z" fill="#bfdbfe" stroke="#000" stroke-width="0.85"/>
    </g>
  </g>

  <!-- Tower crane -->
  <g aria-hidden="true">
    <rect x="1058" y="118" width="26" height="160" rx="2" fill="#334155" stroke="#000" stroke-width="1"/>
    <line x1="1064" y1="125" x2="1064" y2="268" stroke="#1e293b" stroke-width="1" opacity="0.5"/>
    <line x1="1078" y1="125" x2="1078" y2="268" stroke="#1e293b" stroke-width="1" opacity="0.5"/>
    <rect x="1038" y="108" width="66" height="14" rx="3" fill="#1e293b" stroke="#000" stroke-width="1"/>
    <path d="M1071 118 L760 92 L760 108 L1071 134 Z" fill="#475569" stroke="#000" stroke-width="1"/>
    <line x1="1071" y1="118" x2="760" y2="92" stroke="#64748b" stroke-width="0.8" opacity="0.6"/>
    <path d="M1071 118 L1145 112 L1145 128 L1071 134 Z" fill="#64748b" stroke="#000" stroke-width="1"/>
    <rect x="1132" y="114" width="18" height="14" rx="1" fill="#1e293b" stroke="#000" stroke-width="0.8"/>
  </g>

  <g transform="translate(980, 168)" filter="url(#liftShadow)">
    <path d="M0 36 L20 22 L40 36 L20 50 Z" fill="#93c5fd" stroke="#000" stroke-width="0.9"/>
    <path d="M0 36 L0 62 L20 76 L20 50 Z" fill="#60a5fa" stroke="#000" stroke-width="0.9"/>
    <path d="M20 50 L40 36 L40 62 L20 76 Z" fill="#3b82f6" stroke="#000" stroke-width="0.9"/>
  </g>

  <g aria-hidden="true">
    <line x1="1000" y1="126" x2="1000" y2="180" stroke="#000" stroke-width="2.2"/>
    <rect x="992" y="180" width="16" height="10" rx="2" fill="#e2e8f0" stroke="#000" stroke-width="1"/>
  </g>

  <!-- Team: each figure with an open laptop (software / digital product) -->
  <g transform="translate(805, 278)">
    <ellipse cx="22" cy="10" rx="11" ry="11" fill="#1e293b"/>
    <path d="M12 22 L28 26 L26 50 L10 46 Z" fill="#0d6efd"/>
    <path d="M10 24 L2 40 L6 44 L14 28 Z" fill="#1e293b"/>
    <path d="M28 26 L42 20 L44 24 L30 30 Z" fill="#1e293b"/>
    <!-- Laptop: lid + screen -->
    <path d="M0 34 L26 28 L28 44 L2 50 Z" fill="#1a1a1a" stroke="#000" stroke-width="0.85"/>
    <rect x="3" y="30" width="22" height="13" rx="1.5" fill="#dbeafe" stroke="#000" stroke-width="0.75"/>
    <g stroke="#0d6efd" stroke-width="0.85" opacity="0.9">
      <line x1="5" y1="34" x2="23" y2="34"/>
      <line x1="5" y1="37" x2="23" y2="37"/>
      <line x1="5" y1="40" x2="18" y2="40"/>
    </g>
    <!-- Keyboard base -->
    <path d="M0 48 L28 42 L30 52 L2 58 Z" fill="#334155" stroke="#000" stroke-width="0.75"/>
    <path d="M16 50 L16 72 L22 72 L22 50 Z" fill="#1e293b"/>
    <path d="M22 50 L22 72 L28 72 L28 50 Z" fill="#1e293b"/>
  </g>
  <g transform="translate(978, 282)">
    <ellipse cx="16" cy="9" rx="10" ry="10" fill="#1e293b"/>
    <path d="M8 20 L8 44 L24 44 L24 20 Z" fill="#1e40af"/>
    <path d="M6 22 L0 36 L4 40 L10 26 Z" fill="#1e293b"/>
    <path d="M24 22 L32 34 L28 38 L22 26 Z" fill="#1e293b"/>
    <path d="M-2 36 L26 30 L28 46 L0 52 Z" fill="#1a1a1a" stroke="#000" stroke-width="0.85"/>
    <rect x="1" y="32" width="22" height="13" rx="1.5" fill="#cfe2ff" stroke="#000" stroke-width="0.75"/>
    <g stroke="#1d4ed8" stroke-width="0.85" opacity="0.9">
      <line x1="3" y1="36" x2="21" y2="36"/>
      <line x1="3" y1="39" x2="21" y2="39"/>
      <line x1="3" y1="42" x2="16" y2="42"/>
    </g>
    <path d="M-2 48 L26 42 L28 54 L0 60 Z" fill="#334155" stroke="#000" stroke-width="0.75"/>
    <path d="M12 46 L12 68 L18 68 L18 46 Z" fill="#1e293b"/>
    <path d="M18 46 L18 68 L24 68 L24 46 Z" fill="#1e293b"/>
  </g>
  <g transform="translate(1135, 278)">
    <ellipse cx="12" cy="10" rx="11" ry="11" fill="#fcd9bd" stroke="#000" stroke-width="0.6"/>
    <path d="M2 6 L22 6 L20 2 L4 2 Z" fill="#f59e0b" stroke="#000" stroke-width="0.6"/>
    <path d="M22 22 L8 26 L10 50 L24 46 Z" fill="#ea580c"/>
    <path d="M4 24 L-2 38 L2 42 L8 28 Z" fill="#1e293b"/>
    <path d="M20 24 L28 36 L24 40 L18 28 Z" fill="#1e293b"/>
    <path d="M2 34 L28 38 L26 54 L0 50 Z" fill="#1a1a1a" stroke="#000" stroke-width="0.85"/>
    <rect x="5" y="36" width="20" height="12" rx="1.5" fill="#dbeafe" stroke="#000" stroke-width="0.75"/>
    <g stroke="#0d6efd" stroke-width="0.85" opacity="0.9">
      <line x1="7" y1="40" x2="23" y2="40"/>
      <line x1="7" y1="43" x2="23" y2="43"/>
      <line x1="7" y1="46" x2="19" y2="46"/>
    </g>
    <path d="M2 50 L28 46 L30 56 L4 60 Z" fill="#334155" stroke="#000" stroke-width="0.75"/>
    <path d="M4 50 L4 72 L10 72 L10 50 Z" fill="#1e293b"/>
    <path d="M10 50 L10 72 L16 72 L16 50 Z" fill="#1e293b"/>
  </g>
  </g>

  <!-- Branding on top of scene -->
  <g transform="translate(260, 72)">
    <rect x="0" y="0" width="22" height="22" rx="5" fill="#0d6efd" stroke="#000" stroke-width="1.2"/>
    <rect x="28" y="0" width="22" height="22" rx="5" fill="#cfe2ff" stroke="#000" stroke-width="1.2"/>
    <rect x="0" y="28" width="22" height="22" rx="5" fill="#cfe2ff" stroke="#000" stroke-width="1.2"/>
    <rect x="28" y="28" width="22" height="22" rx="5" fill="#cfe2ff" stroke="#000" stroke-width="1.2"/>
  </g>
  <text x="260" y="188" font-family="system-ui, -apple-system, Segoe UI, sans-serif" font-size="40" font-weight="800" fill="#0d6efd" letter-spacing="-0.02em">Eclipse Docks</text>
  <text x="260" y="248" font-family="system-ui, -apple-system, Segoe UI, sans-serif" font-size="13" font-weight="600" fill="#0d6efd" opacity="0.9">IDE-LEVEL EXTENSIBILITY | WEB-NATIVE | OPEN SOURCE</text>
</svg>
